<?xml version="1.0" standalone="no"?>
<!DOCTYPE svg PUBLIC "-//W3C//DTD SVG 1.1//EN" "http://www.w3.org/Graphics/SVG/1.1/DTD/svg11.dtd">
<svg xmlns="http://www.w3.org/2000/svg" id="Layer_1" data-name="Layer 1" viewBox="0 0 1080 1080" width="1080" height="1080"><defs><style>.cls-1{fill:#0cb7d1;}.cls-2{fill:#1063b5;}.cls-3{fill:#02a7e4;}</style></defs><polygon class="cls-1" points="214.04 301.28 449.86 537.1 540 446.96 394.32 301.28 214.04 301.28"/><polygon class="cls-2" points="685.68 301.28 540 446.96 630.14 537.1 865.96 301.28 685.68 301.28"/><polygon class="cls-3" points="394.32 301.28 540 446.96 685.68 301.28 394.32 301.28"/><polygon class="cls-2" points="615.22 552.03 464.8 552.03 540.01 476.82 615.22 552.03"/><path class="cls-3" d="M392.53,752.69H380.25l-28-80.88h11.56l22.62,65.07,22.62-65.07H420.5Z"/><path class="cls-3" d="M467.94,752.81v-9.24a30.65,30.65,0,0,1-9,7.17,23,23,0,0,1-10.83,2.68,30.42,30.42,0,0,1-11.85-2.31,30.06,30.06,0,0,1-9.8-6.57,29.13,29.13,0,0,1-6.62-9.79,30.74,30.74,0,0,1,0-23.72,30.56,30.56,0,0,1,6.62-9.91,30.06,30.06,0,0,1,9.8-6.57,30.42,30.42,0,0,1,11.85-2.31,25.67,25.67,0,0,1,19.83,9.24v-8h10.95v59.35Zm-27.55-48.22a18.77,18.77,0,0,0-10.58,10.58,20,20,0,0,0-1.52,7.72,19.57,19.57,0,0,0,1.52,7.66,19.27,19.27,0,0,0,4.19,6.33,19.51,19.51,0,0,0,6.39,4.2,20.24,20.24,0,0,0,7.72,1.52,19.84,19.84,0,0,0,7.67-1.52,19.18,19.18,0,0,0,10.52-10.53,19.75,19.75,0,0,0,1.52-7.66,20.24,20.24,0,0,0-1.52-7.72,19.56,19.56,0,0,0-18.19-12.1A20,20,0,0,0,440.39,704.59Z"/><path class="cls-3" d="M508.08,702.94v49.87H497.74V702.94h-9.12V692h9.12V671.93h10.34V692h9.12v10.94Z"/><path class="cls-3" d="M545.17,702.94v49.87H534.84V702.94h-9.13V692h9.13V671.93h10.33V692h9.13v10.94Z"/><path class="cls-3" d="M609.64,752.81v-9.24a30.65,30.65,0,0,1-9,7.17,23,23,0,0,1-10.83,2.68A30.5,30.5,0,0,1,578,751.11a30.13,30.13,0,0,1-9.79-6.57,29.3,29.3,0,0,1-6.63-9.79,30.86,30.86,0,0,1,0-23.72,30.75,30.75,0,0,1,6.63-9.91,30.13,30.13,0,0,1,9.79-6.57,30.5,30.5,0,0,1,11.86-2.31,25.67,25.67,0,0,1,19.83,9.24v-8h10.94v59.35Zm-27.55-48.22a18.77,18.77,0,0,0-10.58,10.58,20,20,0,0,0-1.52,7.72,19.57,19.57,0,0,0,1.52,7.66,19,19,0,0,0,10.58,10.53,20.24,20.24,0,0,0,7.72,1.52,19.84,19.84,0,0,0,7.67-1.52A19.18,19.18,0,0,0,608,730.55a19.75,19.75,0,0,0,1.52-7.66,20.24,20.24,0,0,0-1.52-7.72,19.56,19.56,0,0,0-18.19-12.1A20,20,0,0,0,582.09,704.59Z"/><path class="cls-3" d="M658.65,703.67a12.76,12.76,0,0,0-5.23-1.33,10.45,10.45,0,0,0-8,3.4,11.9,11.9,0,0,0-3.41,8.39v38.68H631.53V714.13a22.58,22.58,0,0,1,3.35-12,22.92,22.92,0,0,1,9.18-8.51,21.63,21.63,0,0,1,9.36-2.07,20.55,20.55,0,0,1,7.67,1.46,29.88,29.88,0,0,1,7.66,4.74Z"/><path class="cls-3" d="M716.79,752.81v-9.24a30.4,30.4,0,0,1-9,7.17A22.9,22.9,0,0,1,697,753.42a30.47,30.47,0,0,1-11.86-2.31,30.13,30.13,0,0,1-9.79-6.57,29.15,29.15,0,0,1-6.63-9.79A30.52,30.52,0,0,1,697,692.24a25.63,25.63,0,0,1,19.82,9.24v-8h11v59.35Zm-27.55-48.22a18.85,18.85,0,0,0-10.58,10.58,20.24,20.24,0,0,0-1.52,7.72,19.75,19.75,0,0,0,1.52,7.66,19,19,0,0,0,10.58,10.53A20.29,20.29,0,0,0,697,742.6a19.88,19.88,0,0,0,14-5.72,19.27,19.27,0,0,0,4.19-6.33,19.75,19.75,0,0,0,1.52-7.66,20.24,20.24,0,0,0-1.52-7.72,18.9,18.9,0,0,0-10.52-10.58,19.61,19.61,0,0,0-7.66-1.52A20.1,20.1,0,0,0,689.24,704.59Z"/></svg>